<?xml version="1.0" encoding="UTF-8" standalone="no"?>
<svg
   id="svg1"
   sodipodi:docname="mono-chart-bar.svg"
   viewBox="0 0 62 62"
   sodipodi:version="0.32"
   _SVGFile__filename="oldscale/actions/chart_bar.svg"
   version="1.0"
   y="0"
   x="0"
   inkscape:version="1.1.1 (3bf5ae0d25, 2021-09-20)"
   inkscape:export-filename="/home/artur/garmin/BatteryGuesstimate/app/resources-instinct2s/images/graph.png"
   inkscape:export-xdpi="78.970001"
   inkscape:export-ydpi="78.970001"
   width="62"
   height="62"
   xmlns:inkscape="http://www.inkscape.org/namespaces/inkscape"
   xmlns:sodipodi="http://sodipodi.sourceforge.net/DTD/sodipodi-0.dtd"
   xmlns="http://www.w3.org/2000/svg"
   xmlns:svg="http://www.w3.org/2000/svg"
   xmlns:rdf="http://www.w3.org/1999/02/22-rdf-syntax-ns#"
   xmlns:cc="http://creativecommons.org/ns#"
   xmlns:dc="http://purl.org/dc/elements/1.1/">
  <defs
     id="defs14" />
  <sodipodi:namedview
     id="base"
     bordercolor="#666666"
     inkscape:pageshadow="2"
     inkscape:window-y="0"
     pagecolor="#ffffff"
     inkscape:window-height="1043"
     inkscape:zoom="7.6671792"
     inkscape:window-x="1920"
     borderopacity="1.0"
     inkscape:current-layer="g2537"
     inkscape:cx="23.085413"
     inkscape:cy="15.390275"
     inkscape:window-width="1920"
     inkscape:pageopacity="0.0"
     inkscape:pagecheckerboard="0"
     showgrid="false"
     inkscape:window-maximized="1" />
  <rect
     style="fill:#ffffff;stroke:#808080;stroke-opacity:1;fill-opacity:1"
     id="rect2675"
     width="70.830299"
     height="65.789413"
     x="-1.941043"
     y="-1.1024641"
     rx="3" />
  <ellipse
     style="fill:none;stroke:#808080;stroke-width:0.800226;stroke-opacity:1"
     id="path2194"
     cx="36.497028"
     cy="-40.805866"
     rx="31.460217"
     ry="31.633091" />
  <g
     id="g2537"
     transform="matrix(1.0326066,0,0,1.0431747,-0.85097201,-0.24291385)">
    <path
       id="path1097"
       style="fill:none;stroke:#ffffff;stroke-width:6.40355;stroke-linecap:round;stroke-linejoin:round"
       d="m 13.570586,13.390533 c -0.196328,0 -0.3543,0.175002 -0.3543,0.391939 V 47.56745 c 0,0.216938 0.157972,0.391133 0.3543,0.391133 h 8.281366 c 0.196405,0 0.35507,-0.174195 0.35507,-0.391133 V 13.782472 c 0,-0.216937 -0.158665,-0.391939 -0.35507,-0.391939 z"
       inkscape:export-filename="/home/artur/garmin/BatteryGuesstimate/app/resources-instinct2/images/graph.png"
       inkscape:export-xdpi="101.32"
       inkscape:export-ydpi="101.32" />
    <path
       id="path1098"
       style="fill:none;stroke:#ffffff;stroke-width:6.40355;stroke-linecap:round;stroke-linejoin:round"
       d="m 26.99977,29.281804 c -0.194095,0 -0.349678,0.175001 -0.349678,0.391939 V 47.94326 c 0,0.216938 0.155583,0.391939 0.349678,0.391939 h 8.178157 c 0.194095,0 0.350449,-0.175001 0.350449,-0.391939 V 29.673743 c 0,-0.216938 -0.156354,-0.391939 -0.350449,-0.391939 z"
       inkscape:export-filename="/home/artur/garmin/BatteryGuesstimate/app/resources-instinct2/images/graph.png"
       inkscape:export-xdpi="101.32"
       inkscape:export-ydpi="101.32" />
    <path
       id="path1099"
       style="fill:none;stroke:#ffffff;stroke-width:6.40355;stroke-linecap:round;stroke-linejoin:round"
       d="m 40.399224,21.163183 c -0.196405,0 -0.3543,0.175002 -0.3543,0.391939 v 26.147007 c 0,0.217744 0.157895,0.391939 0.3543,0.391939 h 8.281366 c 0.196405,0 0.354299,-0.174195 0.354299,-0.391939 V 21.555122 c 0,-0.216937 -0.157894,-0.391939 -0.354299,-0.391939 z"
       inkscape:export-filename="/home/artur/garmin/BatteryGuesstimate/app/resources-instinct2/images/graph.png"
       inkscape:export-xdpi="101.32"
       inkscape:export-ydpi="101.32" />
    <path
       id="path1100"
       style="fill:none;stroke:none;stroke-width:10;stroke-linecap:round;stroke-linejoin:round"
       d="m 5.6275,5.6263 v 48.748 h 48.744"
       inkscape:export-filename="/home/artur/garmin/BatteryGuesstimate/app/resources-instinct2/images/graph.png"
       inkscape:export-xdpi="101.32"
       inkscape:export-ydpi="101.32" />
    <path
       id="rect918"
       style="fill:#ffffff;fill-rule:evenodd;stroke:#000000;stroke-width:2.46287;stroke-linecap:round;stroke-linejoin:round"
       d="m 17.048419,13.390848 c -0.196433,0 -0.354261,0.174526 -0.354261,0.39174 v 33.785031 c 0,0.215958 0.157828,0.391739 0.354261,0.391739 h 8.280859 c 0.196433,0 0.354261,-0.175781 0.354261,-0.391739 V 13.782588 c 0,-0.217214 -0.157828,-0.391739 -0.354261,-0.391739 z"
       inkscape:export-filename="/home/artur/garmin/BatteryGuesstimate/app/resources-instinct2/images/graph.png"
       inkscape:export-xdpi="101.32"
       inkscape:export-ydpi="101.32" />
    <path
       id="rect919"
       style="fill:#ffffff;fill-rule:evenodd;stroke:#000000;stroke-width:2.9989;stroke-linecap:round;stroke-linejoin:round"
       d="m 30.477803,20.08733 c -0.193995,0 -0.349863,0.258741 -0.349863,0.580771 v 27.085903 c 0,0.32203 0.155868,0.580771 0.349863,0.580771 h 8.179186 c 0.193994,0 0.349864,-0.258741 0.349864,-0.580771 V 20.668101 c 0,-0.32203 -0.15587,-0.580771 -0.349864,-0.580771 z"
       inkscape:export-filename="/home/artur/garmin/BatteryGuesstimate/app/resources-instinct2/images/graph.png"
       inkscape:export-xdpi="101.32"
       inkscape:export-ydpi="101.32" />
    <path
       id="rect920"
       style="fill:#ffffff;fill-rule:evenodd;stroke:#000000;stroke-width:2.24607;stroke-linecap:round;stroke-linejoin:round"
       d="m 43.876267,25.695469 c -0.196434,0 -0.354262,0.145152 -0.354262,0.325808 v 21.74662 c 0,0.180656 0.157828,0.325808 0.354262,0.325808 h 8.281993 c 0.196434,0 0.354262,-0.145152 0.354262,-0.325808 v -21.74662 c 0,-0.180656 -0.157828,-0.325808 -0.354262,-0.325808 z"
       inkscape:export-filename="/home/artur/garmin/BatteryGuesstimate/app/resources-instinct2/images/graph.png"
       inkscape:export-xdpi="101.32"
       inkscape:export-ydpi="101.32" />
    <path
       id="path917"
       style="fill:none;stroke:#000000;stroke-width:3.94068;stroke-linecap:round;stroke-linejoin:round"
       d="m 11.095957,9.097995 -7.4e-4,40.925032 H 51.71901"
       inkscape:export-filename="/home/artur/garmin/BatteryGuesstimate/app/resources-instinct2/images/graph.png"
       inkscape:export-xdpi="101.32"
       inkscape:export-ydpi="101.32"
       sodipodi:nodetypes="ccc" />
  </g>
  <metadata
     id="metadata11">
    <rdf:RDF>
      <cc:Work>
        <dc:format>image/svg+xml</dc:format>
        <dc:type
           rdf:resource="http://purl.org/dc/dcmitype/StillImage" />
        <cc:license
           rdf:resource="http://creativecommons.org/publicdomain/zero/1.0/" />
        <dc:publisher>
          <cc:Agent
             rdf:about="http://openclipart.org/">
            <dc:title>Openclipart</dc:title>
          </cc:Agent>
        </dc:publisher>
      </cc:Work>
      <cc:License
         rdf:about="http://creativecommons.org/publicdomain/zero/1.0/">
        <cc:permits
           rdf:resource="http://creativecommons.org/ns#Reproduction" />
        <cc:permits
           rdf:resource="http://creativecommons.org/ns#Distribution" />
        <cc:permits
           rdf:resource="http://creativecommons.org/ns#DerivativeWorks" />
      </cc:License>
    </rdf:RDF>
  </metadata>
</svg>
